# xmcd
#
# Track frame offsets:
#       183
#       13395
#       23795
#       39083
#       48350
#       63693
#       70380
#       81320
#       97760
#       108840
#       119793
#       134938
#       178540
#       188580
#       200390
#       216945
#       232908
#
# Disc length: 3244 seconds
#
# Revision: 1
# Processed by: cddbd v1.4PL0 Copyright (c) Steve Scherf et al.
# Submitted via: WhereIsIt 3.26
#
DISCID=f20caa11
DTITLE=Tammy Wynette - In concert singing her song
DYEAR=1900
DGENRE=
TTITLE0=My Man
TTITLE1=Another Change
TTITLE2=Till I Make It On My Own
TTITLE3=Rocky Top
TTITLE4=Alive And Well
TTITLE5=Medley 1
TTITLE6=Making Love
TTITLE7=You And Me
TTITLE8=Take Me To Your World
TTITLE9=Womanhood
TTITLE10=Crying In The Rain
TTITLE11=Medley 2
TTITLE12=Fairy Tailes
TTITLE13=Stand By Your Man
TTITLE14=Medley 3
TTITLE15=Let's Call It A Day Today
TTITLE16=Heart Over Mind
EXTD=
EXTT0=
EXTT1=
EXTT2=
EXTT3=
EXTT4=
EXTT5=
EXTT6=
EXTT7=
EXTT8=
EXTT9=
EXTT10=
EXTT11=
EXTT12=
EXTT13=
EXTT14=
EXTT15=
EXTT16=
PLAYORDER=
